<?xml version="1.0" encoding="UTF-8" standalone="no"?>
<svg
   xmlns:dc="http://purl.org/dc/elements/1.1/"
   xmlns:cc="http://creativecommons.org/ns#"
   xmlns:rdf="http://www.w3.org/1999/02/22-rdf-syntax-ns#"
   xmlns:svg="http://www.w3.org/2000/svg"
   xmlns="http://www.w3.org/2000/svg"
   version="1.1"
   id="Capa_1"
   x="0px"
   y="0px"
   width="484.006px"
   height="484.006px"
   viewBox="0 0 484.006 484.006"
   style="enable-background:new 0 0 484.006 484.006;"
   xml:space="preserve"><metadata
   id="metadata2264"><rdf:RDF><cc:Work
       rdf:about=""><dc:format>image/svg+xml</dc:format><dc:type
         rdf:resource="http://purl.org/dc/dcmitype/StillImage" /><dc:title></dc:title></cc:Work></rdf:RDF></metadata><defs
   id="defs2262" /><g
   id="g2229" /><g
   id="g2231" /><g
   id="g2233" /><g
   id="g2235" /><g
   id="g2237" /><g
   id="g2239" /><g
   id="g2241" /><g
   id="g2243" /><g
   id="g2245" /><g
   id="g2247" /><g
   id="g2249" /><g
   id="g2251" /><g
   id="g2253" /><g
   id="g2255" /><g
   id="g2257" />
<circle
   style="fill:#a02c2c;fill-opacity:1;stroke:#000000;stroke-width:0;stroke-miterlimit:10;stroke-dasharray:none;stroke-dashoffset:0;stroke-opacity:1"
   id="path2365-6-36"
   cx="246.06061"
   cy="257.43857"
   r="204.35617" /><rect
   style="fill:#ffc317;fill-opacity:1;stroke:#000000;stroke-width:0;stroke-miterlimit:10;stroke-dasharray:none;stroke-dashoffset:0;stroke-opacity:1"
   id="rect123-7"
   width="489.83606"
   height="489.83606"
   x="0.016230447"
   y="-0.061908025" /><path
   style="fill:#a02c2c;fill-opacity:1;stroke-width:7.94623137"
   d="m 136.53259,300.49925 0.63274,-42.59168 c -19.57345,-0.35653 -39.707013,7.33469 -53.405124,20.62069 -13.705285,13.29345 -21.982958,33.68405 -22.266604,52.77475 l -0.62995,42.40403 42.325938,0.62822 0.62995,-42.40404 c 0.12253,-8.24922 3.7135,-17.07124 9.66179,-22.78666 5.91579,-5.68719 15.41409,-8.89548 23.05134,-8.64643 z"
   id="_157776448-2-5" /><path
   style="fill:#a02c2c;fill-opacity:1;stroke-width:7.94623137"
   d="m 135.26965,364.25455 -0.63265,42.59169 c 19.57345,0.35652 39.70701,-7.33469 53.40512,-20.6207 13.7052,-13.29344 21.98296,-33.68405 22.26661,-52.77474 l 0.62986,-42.40402 -42.32594,-0.62823 -0.62987,42.40404 c -0.12261,8.24922 -3.71358,17.07124 -9.66179,22.78665 -5.91578,5.6872 -15.41409,8.89549 -23.05185,8.64587 z"
   id="_157776376-9-3" /><path
   style="fill:#a02c2c;fill-opacity:1;stroke-width:7.94623137"
   d="m 243.59489,209.57492 0.63274,-42.59169 c -19.57345,-0.35651 -39.70701,7.33469 -53.40512,20.6207 -13.70529,13.29346 -21.98296,33.68406 -22.26661,52.77475 l -0.62986,42.40403 42.32594,0.62821 0.62995,-42.40403 c 0.12253,-8.24922 3.71349,-17.07125 9.66171,-22.78666 5.91578,-5.68719 15.41409,-8.89549 23.05134,-8.64644 z"
   id="_157776448-3-56" /><path
   style="fill:#a02c2c;fill-opacity:1;stroke-width:7.94623137"
   d="m 242.33204,273.33022 -0.63274,42.59169 c 19.57345,0.35652 39.70701,-7.33469 53.40512,-20.6207 13.70529,-13.29345 21.98297,-33.68406 22.26661,-52.77475 l 0.62987,-42.40402 -42.32595,-0.62823 -0.62986,42.40405 c -0.12261,8.24921 -3.7135,17.07124 -9.66179,22.78664 -5.91579,5.68721 -15.41409,8.89549 -23.05185,8.64588 z"
   id="_157776376-6-2" /><path
   style="fill:#a02c2c;fill-opacity:1;stroke-width:7.94623137"
   d="m 351.18708,117.30948 0.63274,-42.591699 c -19.57345,-0.356521 -39.70701,7.334691 -53.40512,20.6207 -13.70529,13.293459 -21.98296,33.684059 -22.26661,52.774739 l -0.62995,42.40405 42.32603,0.6282 0.62986,-42.40405 c 0.12262,-8.24921 3.7135,-17.07122 9.66179,-22.78663 5.91579,-5.6872 15.41409,-8.89549 23.05135,-8.64644 z"
   id="_157776448-7-9" /><path
   style="fill:#a02c2c;fill-opacity:1;stroke-width:7.94623137"
   d="m 349.92423,181.06477 -0.63274,42.59168 c 19.57345,0.35652 39.70701,-7.33468 53.40512,-20.62069 13.70529,-13.29345 21.98296,-33.68406 22.26661,-52.77476 l 0.62987,-42.404 -42.32595,-0.62823 -0.62986,42.40402 c -0.12262,8.24924 -3.71358,17.07125 -9.66179,22.78666 -5.91579,5.6872 -15.41409,8.8955 -23.05185,8.64587 z"
   id="_157776376-5-1" />

</svg>